<?xml version="1.0" encoding="utf-8"?>
<!-- Generator: Adobe Illustrator 22.1.0, SVG Export Plug-In . SVG Version: 6.00 Build 0)  -->
<svg version="1.1" id="Layer_1" xmlns="http://www.w3.org/2000/svg" xmlns:xlink="http://www.w3.org/1999/xlink" x="0px" y="0px"
	 viewBox="0 0 678.8 653.7" style="enable-background:new 0 0 678.8 653.7;" xml:space="preserve">
<style type="text/css">
	.st0{display:none;}
	.st1{display:inline;}
	.st2{fill:#C81813;stroke:#C81813;stroke-miterlimit:10;}
	.st3{fill:#C81813;}
	.st4{display:inline;fill:#339933;}
	.st5{fill:#339933;}
</style>
<title>carte</title>
<g id="Layer_1_1_" class="st0">
	<g id="vao" class="st1">
		<polygon class="st2" points="653,168.1 650.5,163.7 649.3,159 651.2,155.9 653,153.8 655.5,149.7 655.5,148.1 650.8,144.7 
			647.1,142.2 644.3,140.1 642.4,140.1 639.3,140.1 637.2,136.9 637.2,134.8 635.3,132.6 638.1,130.1 638.1,126 635.3,123.6 
			631.9,119.2 630.3,116.4 630.3,114.5 630.3,112 631.9,109.9 632.2,106.8 630.3,103.3 628.8,99.9 628.8,98.4 628.8,97.1 
			628.8,94.9 628.8,92.4 628.8,90.6 628.8,88.1 628.8,85.6 628.8,82.2 628.8,80.3 626.6,76.3 626.6,72.8 626.6,70.7 626.6,68.5 
			623.8,68.5 626.3,64.4 627.8,62.6 628.1,61 625.3,61 623.8,59.2 622.5,57.3 622.5,55.4 625.3,52.6 626.6,50.8 622.5,49.5 
			620,47.9 620,46.1 616.9,46.1 616.9,42.7 612.3,42.7 608.5,40.2 607.3,35.8 599.8,32.4 597.3,35.8 594.2,36.7 590.5,35.5 
			585.8,32.4 584.3,32.4 586.8,34.9 587.7,35.8 584.3,35.8 581.5,32.4 579.3,20.9 575.9,28 573.1,28.3 571.2,31.1 563.1,33 
			560,31.5 554.7,28.7 551,29.9 548.8,32.4 548.8,38.3 548.8,44.2 548.8,46.4 554.1,47.3 557.2,48.3 557.2,51.4 555.9,54.8 
			555,57.6 553.1,57.6 551.3,57.9 551.3,62.6 550.7,65.4 548.8,66 548.8,70.7 548.8,72.2 544.4,71.9 546,74.7 548.2,76.6 
			549.4,80.3 549.1,86.5 546.8,90.6 544.4,93.1 543.6,94.6 544.4,97.4 539.5,100.8 539.5,104 539.5,106.8 542.6,106.4 543.8,109.6 
			546.6,106.4 548.5,109.2 553.5,104.6 548.8,103.6 554.1,97.1 560.3,90 565.3,91.8 567.1,94.5 578.3,94.5 579,97.7 574.9,101.5 
			571.5,104.3 570.3,105.2 570,107.4 571.8,108.6 574.9,108.9 580.2,113.9 583.6,118.3 585.5,121.7 580.5,122.3 580.5,125.1 
			575.2,124.5 565.6,127 561.9,126 559,125.1 554.4,129.8 550.7,134.4 548.8,138.5 546.6,141.6 543.8,145.7 543.2,149.1 546,150.8 
			546.1,151.6 545,154.4 550,157.5 551.3,165.9 556.6,168.1 556.9,170.2 561.5,167.1 566.2,170.2 574,166.5 571.8,170.2 
			571.8,175.5 573.7,180.2 575.2,182.1 577.4,182.1 571.2,186.1 573.1,188.6 585.2,186.7 588.9,183.9 586.8,179.9 588.9,177.1 
			585.8,174.3 590.8,170.9 597.5,170.9 600.8,168.7 604.5,169.3 609.5,174.3 610.4,170.9 614.8,172.1 616.3,169.3 619.4,167.1 
			626.6,168.7 640.3,169 649.9,171.5 		"/>
	</g>
	<g id="lom" class="st1">
		<polygon class="st2" points="548.8,46.2 548.8,33.1 544,29.4 530.1,34.5 521.9,33.4 512.5,30.3 509.6,29.4 494,11.4 492.6,5.8 
			495.9,1.6 492.6,1.6 492.6,0 487.5,0.9 484.5,4.8 480,4.5 477.8,6.5 471.1,5.9 459.6,41.8 468.2,41.8 471.8,44.3 477.2,44.8 
			477.1,54 479.6,55.8 481.6,53 489.7,59.4 489.8,62.8 493.4,64.9 499.5,61.6 498.5,56.8 499.5,51.6 506.6,51.6 512.2,49 
			514.3,54.1 525.8,56.9 530.3,54.6 532.5,50.4 534.2,53 537,53.2 539.5,49.3 544.6,49.3 		"/>
	</g>
	<g id="Calque_4" class="st1">
		<polygon class="st2" points="585.5,121.5 578.4,112 574,108.6 570,107.2 570.3,105 572.7,103.1 579,97.5 578.6,95.7 578.3,94.3 
			567.1,94.3 565.3,91.6 560.3,89.8 548.8,103.6 553.3,104.5 548.5,109 546.8,105.6 544.5,108.6 542.6,106.2 539.5,105.6 
			539.5,100.6 544.4,97.2 543.5,94.4 546.5,91.2 549.1,86.3 548.8,76.8 546,74.5 544.4,71.7 548.8,72 548.8,65.8 551.9,64.9 
			551.3,57.7 555,57.4 556.9,52.1 557.2,48.1 548.8,46.2 544.6,49.3 539.5,49.3 537,53.2 534.2,53 532.3,49.3 530.3,54.6 
			525.8,56.9 514.3,54.1 512.2,49 506.6,51.6 499.9,51.6 498.5,56.8 499.5,61.6 493.5,64.9 491.9,67.2 485.4,69.4 489.8,75.4 
			488.7,80.1 483.8,81.7 478.9,81.5 478.9,79.2 474.9,76.6 471.6,81 479.8,88.5 475.6,92.5 478.9,95.7 476.8,101.6 477.2,107 
			474,110.7 480,113.3 483.1,114 486.1,116.3 486.1,119.6 490.5,125.2 494.7,124.2 493.1,127 493.6,131.2 496.6,135.7 499.9,132.9 
			501.7,133.6 504.2,127.7 507.8,127.5 510.8,126.1 514.8,129.4 514.3,135.2 520.4,136.6 524.4,135.2 534.2,149 538.1,149 
			541.4,146.4 542.1,149 543.3,149 543.7,145.5 547,142 548.8,137.8 553.3,130.8 559.4,125.2 565.6,126.8 571.3,126.1 576.2,124.2 
			580.5,124.9 580.8,122.4 		"/>
	</g>
	<g id="Calque_5" class="st1">
		<polygon class="st2" points="491.9,67.2 493.4,64.9 489.8,62.8 489.7,59.4 481.6,53 479.6,55.8 477.1,54 477.2,44.8 471.6,43.2 
			468.2,41.8 459.6,41.8 443.9,73.1 437.1,85.9 425.6,94.1 428.9,95.3 430.8,104.5 434.8,103.5 435.7,105.8 440.6,105.8 
			437.5,109.5 439.9,112.3 438,115.1 438,120 444.3,120 448.8,124.2 455,119.6 452,117.7 454.4,113.7 455,109.3 461.4,111.6 
			459.6,115.4 463.5,115.4 465.3,118.2 470.2,116.8 476.5,117.2 474.4,109.8 477.2,107 477,104.5 476.8,101.1 479.1,95.5 
			475.6,92.7 479.8,88.5 476.5,85.7 471.9,80.6 474.4,77.1 478.9,79.2 478.9,81.5 483.8,81.7 488.7,80.1 489.6,75 485.4,69.4 		"/>
	</g>
	<g id="Calque_6" class="st1">
		<polygon class="st2" points="496.6,135.7 493.6,131.2 493.1,127 494.7,124.2 490.5,125.2 486.1,119.6 486.1,116.1 483.1,114 
			474.6,110.4 476.5,117.2 470.2,116.8 465.3,118.2 463.5,115.4 459.6,115.4 461.4,111.6 455,109.3 454.5,112.6 452,117.7 
			455,119.6 448.8,124.2 444.3,120 438,120 434.5,121.2 433.4,130.8 431,131.2 428.2,144.1 430.4,146.1 430.3,152.2 427.7,158.1 
			425.6,160.6 426.8,166 425.6,173 428.5,176 428.2,180 430.8,182.1 428.7,185.6 425.6,185.6 423.3,186.8 420.8,184.4 417.3,189.6 
			419.6,189.8 421.7,193.5 425.6,194 423.5,200.5 425.6,203.1 428.5,201.7 430.1,204.2 430.8,205.2 439.4,204.3 440.1,196.3 
			445.3,197.7 449,195.4 451.8,195.9 455.3,191.2 465.3,188.4 471.6,182.1 473.7,183 475.6,179.3 474.4,176.5 471.6,175.1 
			474.2,170 479.6,170.4 481,165.3 485.4,164.6 489.4,165.8 487.7,163 488.7,160.4 484.5,159.2 485.9,155.3 490.1,154.8 
			490.1,151.3 493.4,151.3 494.7,146.9 493.4,138.5 		"/>
	</g>
	<g id="Calque_7" class="st1">
		<polygon class="st2" points="437.5,109.5 440.3,106.1 435.7,105.8 434.8,103.5 430.8,104.5 428.9,95.3 425.6,94.1 421.1,94.1 
			417.6,98.5 410.3,103.5 405.4,103.5 388.5,112.2 382.5,113.1 376.3,119.6 373.1,117.5 369.7,120.9 367.7,126.8 353.4,140 
			355.8,143.8 354,146.7 353.4,147.6 359.5,151.7 367.9,150.1 370.6,152.9 370.2,156.8 372.5,159.9 378.3,158.8 379.1,155.7 
			382.9,154.9 390.9,149 388.5,145 390.6,143.4 390.9,138.8 392.1,136.6 396.7,144.8 402.7,146.6 405,151.5 408.6,155.7 
			411.1,155.6 416.5,154 417.8,156.8 425.6,160.6 427.2,159.4 430.3,152.2 430.4,146.1 428.4,143.8 431,131 433.4,131 434.6,121 
			438,120 438.3,114.7 439.9,112.3 		"/>
	</g>
	<g id="Calque_8" class="st1">
		<polygon class="st2" points="425.6,160.6 417.8,156.8 416.5,154 408.6,155.7 405,151.5 402.7,146.6 396.7,144.8 392.1,136.6 
			390.8,139.6 390.6,143.4 388.5,145 390.9,149 382.9,154.9 379.1,155.7 378.3,158.8 372.5,159.9 370.2,156.8 370.6,152.9 
			367.9,150.1 359.5,151.7 353.4,147.6 354.8,145.5 355.9,143.6 353.4,140 349.1,145.5 344,148.6 346.5,151.8 342.8,156.8 
			345.6,159.9 344.2,162 344.9,165.1 342.8,168.1 340.9,172.3 327.9,185.6 327.9,190.7 319.9,199.6 322.7,202.6 319.9,211.5 
			321.1,219.9 322.7,222.7 323.9,227.4 328.3,226.5 329,223.4 332.1,221.8 334.4,224.8 339.5,222.7 343,227.4 345.1,227.4 
			344.8,225.6 353.4,226.4 353.4,222.7 359.6,218.7 361.7,222 361.3,226.2 364.7,223.9 372.8,224.1 376.9,225.3 384.6,221.1 
			390.2,224.1 391.1,222.9 393,217.6 399.5,212 403.3,212.2 407.7,209.2 412.6,208 413.8,205.9 416.5,206.1 421.2,204.3 421.7,201 
			423.5,200.5 425.6,194 421.7,193.5 419.6,189.8 417.3,189.6 420.8,184.4 423.3,186.8 425.6,185.6 428.7,185.6 430.8,182.1 
			428,180 428.5,176 426.4,173.2 426.8,166 		"/>
	</g>
	<g id="Calque_9" class="st1">
		<polygon class="st2" points="577.6,191.2 577.6,187.7 573.1,188.4 571.2,185.9 577.4,181.9 575.2,181.9 572.4,176.9 571.8,170 
			574.4,166.2 567.4,169.5 560.8,166.2 556.9,170 556.9,166.2 551.3,165.7 551.3,161.3 550,157.3 545,154.2 546.3,151 542.1,149 
			541.4,146.4 538.1,149 534.2,149 530,140.8 524.4,135.2 520.4,136.6 514.3,135.2 514.3,132.6 514.8,129.4 510.8,126.1 
			507.8,127.5 504.2,127.7 501.7,133.6 499.9,132.9 493.4,138.5 494.7,146.9 493.4,151.3 490.1,151.3 490.1,154.8 485.9,155.3 
			484.5,159.2 488.9,160.6 487.7,163 489.4,165.8 485.4,164.6 481,165.3 479.6,170.4 474.2,170 471.6,175.1 474.4,176.5 
			475.6,179.3 473.7,183 471.6,182.1 465.3,188.4 455.3,191.2 451.8,195.9 449,195.4 445.3,197.7 440.1,196.3 439.4,204.3 
			430.8,205.2 428.5,201.7 425.6,203.1 423.5,200.5 421.7,201 421.2,204.3 417.5,205.8 413.8,205.9 412.6,208 407.7,209.2 
			399.5,215.5 399.5,217.1 402.5,217.1 401.1,219.4 401.4,226.2 406,226.2 403.7,227.4 401.1,230.9 406.8,230.9 406,235.5 410,240 
			406,240 405.6,243 401.6,243 402.5,247.4 404.6,247.4 406.8,251.6 403.7,254.2 409.8,254.2 411.9,257 414.2,255.4 418,258.6 
			416.5,253.7 418.9,252.3 421.7,245.6 427.5,250.2 432.2,247.7 433.8,248.8 434,243.7 436.6,245.3 441.3,242.5 442.7,245.8 
			446,246.7 449,249.8 444.5,253.3 444.8,256.3 448,258.6 446.2,261.9 447.1,263.1 449.7,261.4 453,263.1 448.3,268.9 450.1,271.9 
			447.6,275 449.5,278 449.2,284.8 456.5,286.2 457.9,288.3 466,288.3 474.2,286.4 474.4,284.3 477,284.5 476,288.3 480,288.3 
			480,290.6 483.1,290.6 483.3,286.9 487,278.7 492.2,274 494,270.3 496.4,269.6 497.8,266.1 503.4,263.3 506.2,259.6 533.9,240.9 
			550.7,236.7 550.3,233 560.1,222.2 561.2,217.6 559.4,218 557.7,216.9 557,213.8 554.2,215.9 553.8,212.7 550.5,214.3 
			552.4,208.4 551,204.3 555.4,202.4 554.2,198 556.1,197 558.9,198.4 565.7,194.5 567.3,191 		"/>
	</g>
	<g id="Calque_10" class="st1">
		<polygon class="st2" points="449.2,284.8 449.5,278 447.6,275 450.1,271.9 448.3,268.9 453,263.1 449.7,261.4 447.1,263.1 
			446.2,261.9 448,258.6 444.8,256.3 444.5,253.3 449,249.8 446,246.7 442.7,245.8 441.3,242.5 436.6,245.3 433.8,242.5 
			433.8,248.8 432.2,247.7 427.5,250.2 421.7,245.6 418.9,252.3 416.5,253.7 418,258.6 414.2,255.4 412.7,256.4 409.8,254.2 
			403.7,254.2 406.8,251.6 404.6,247.4 402.5,247.4 401.6,243 405.6,243 406,240 411,240 406,235.5 406.8,230.9 401.1,230.9 
			403.7,227.4 406,226.2 401.4,226.2 401.1,219.4 402.5,217.1 399.5,217.1 399.5,215.5 404,212 399.5,212 393,217.6 391.1,222.9 
			384.6,221.1 376.9,225.3 373.9,224.4 364.7,223.9 361.3,226.2 361.7,222 359.6,218.7 353.4,222.7 353.4,226.4 344.8,225.6 
			345.1,227.4 343,227.4 339.5,222.7 334.4,224.8 332.1,221.8 329,223.4 328.3,226.5 323.9,227.4 322.7,222.7 321.1,219.9 
			321.1,226 317.8,233.4 321.3,235.5 328.3,244.2 325.1,257.9 319.9,265.4 317.8,270.5 310.6,278 311.8,283.1 315,280.3 
			316.2,284.8 318.3,287.8 322.8,285.2 325.8,287.8 329.3,284.5 330.7,287.8 332.3,285.9 334.2,287.8 335.8,283.8 340.5,284.8 
			344,289 344.4,294.6 347,296.4 347.5,300.6 344.9,300.6 344.9,303 340.5,304.4 340.2,307.4 342.6,308.2 341.9,311.6 345.8,311.6 
			344,315.8 345.1,318.4 347.9,318.4 347.5,321.4 352.4,322.8 352.4,327.3 361.8,339.1 362.4,322.4 369.4,318.9 390.9,302.8 
			396,298.1 407.5,290.6 414,290.6 423.8,285.2 442,287.8 444.5,285.2 		"/>
	</g>
	<g id="Calque_11" class="st1">
		<polygon class="st2" points="361.8,338.8 352.4,327.3 352.4,322.8 347.5,321.4 347.9,318.4 345.1,318.4 344,315.8 345.6,311.6 
			341.9,311.6 342.6,308.2 340.2,307.4 340.5,304.4 344.9,303 344.9,300.6 347.5,300.6 347,296.4 344.4,294.6 344,289 340.5,284.8 
			335.8,283.8 334.2,287.8 332.3,285.9 330.7,287.8 329.3,284.5 325.8,287.8 322.8,285.2 318.3,287.8 316.2,284.8 315,280.3 
			311.8,283.1 310.6,278 308.3,283.6 306.6,286.6 303.4,289.2 303.4,292.7 297.5,294.3 291.9,303.4 280.7,309.8 268.1,314.2 
			266.5,318.6 261.6,321 255.1,328.4 252,333.3 239.9,337.8 241.1,343.8 244.3,347.1 248.1,357.4 256.9,357.4 262.5,361.3 
			266.7,359.2 286.3,359.2 288.4,361.3 293.3,359.5 298.5,359.9 303.6,365.5 307.8,368.3 313.6,366.2 319.9,375.5 327.2,378.8 
			331.8,378.8 334.6,375.5 337.9,376.3 350,396.1 356.6,399.1 359.6,399.1 		"/>
	</g>
	<g id="Calque_12" class="st1">
		<polygon class="st2" points="359.6,399.1 356.6,399.1 350,396.1 337.9,376.3 334.6,375.5 332.5,378.1 327.2,378.8 319.9,375.5 
			313.6,366.2 307.8,368.3 298.5,359.9 293.3,359.5 288.4,361.3 286.3,359.2 265.8,359.2 263.3,361 256.9,357.4 248.1,357.4 
			245.7,350.8 244.3,347.1 241.1,343.8 239.9,337.8 228.9,341.3 216.1,344.3 192.1,347.8 186.7,356.4 181.3,358 176.6,376.3 
			170.8,381.6 170.8,386.5 166.6,391.9 162.9,400.8 154.9,406.4 143.5,412.9 138.1,412.9 138.1,415.7 132.3,419 130.4,417.6 
			126.5,419 124.2,424.3 124.2,429.9 121.8,436 117.6,439.7 117.6,443.7 115.5,447 115.5,450.5 111.1,454.2 109.2,459.8 
			109.2,463.1 107.6,465.9 109,471.7 107.6,477.3 105,482.2 105,487.8 107.3,490.6 109.9,489.4 113.4,491.8 114.3,495.7 117.2,499 
			122.3,495 125.3,497.1 127.9,495.7 130.9,496.2 134.9,493.9 156.4,501.8 165.4,496 173.6,497.8 184.1,497.6 200.9,504.1 
			213.3,500.9 222.4,502 226.1,436 358.9,442.1 		"/>
	</g>
	<g id="Calque_13" class="st1">
		<polygon class="st2" points="222.4,502 213.3,500.9 200.9,504.1 184.1,497.6 173.6,497.8 165.4,496 155.8,501.6 134.9,493.9 
			130.9,496.2 127.9,495.7 125.3,497.1 122.3,495 117.2,499 114.3,495.7 113.4,491.8 109.9,489.4 107.3,490.6 105,487.8 
			100.3,489.7 100.3,492.9 93.1,496 86.8,500.6 86.8,504.1 82.6,504.1 74.7,512.1 74.7,515.1 65.6,516.7 62.1,520 58.3,524.9 
			56,528.2 56,529.8 59.5,529.8 64.9,520.2 67.2,519.5 68.1,522.1 65.8,526.5 57.4,535.6 57.4,539.4 52.5,544 49.2,548.9 
			45.3,553.6 48.5,556.9 45.3,560.8 41.8,560.8 40.1,563.4 40.1,566 37.8,568.8 37.8,577.6 33.8,579.3 33.8,584.2 29.9,587.9 
			26.1,589.1 23.8,586.8 19.4,590.3 19.4,593.5 16.1,593.5 11.4,606.6 8.9,608.2 10.7,611.3 7.2,612.7 9.1,616.2 4.9,629.9 
			2.1,642.5 0,647 0,650.2 0,651.6 2.8,653.7 3,645.5 6.3,639.7 8.9,629.7 173.4,641.1 173.1,587.7 170.6,577.6 175.9,566.7 
			195.8,555.5 205.1,554.8 214.7,549.9 219.8,548.5 		"/>
	</g>
</g>
<path id="rect14022" class="st3" d="M495,5.7c-2.4,0-4.7,0.3-5.3,0.7c-0.6,0.5-2.1,1.2-3.4,1.6c-1.3,0.4-3.9,1.2-5.8,1.7
	c-1.9,0.6-5,1.2-7,1.5c-2.6,0.3-3.6,0.7-3.6,1.5c0,0.9-0.7,3.3-1.9,7c-0.2,0.6-0.3,1.2-0.3,1.5c0,0.3-0.9,2.4-2.1,4.8
	c-1.2,2.4-2.2,4.7-2.3,5.1c-0.1,0.5-0.8,1.7-1.6,2.8c-0.8,1.1-1.4,2.6-1.4,3.4c0,0.8-0.3,1.6-0.7,1.8c-0.4,0.2-0.7,1-0.7,1.7
	c0,0.7-0.4,2.1-1,3.2c-0.5,1.1-1.8,3.9-2.8,6.2c-1,2.4-2.1,4.3-2.4,4.3c-0.3,0-0.5,0.4-0.5,0.9c0,1.1-6.7,11.9-8.7,14.1
	c-0.9,1-2,2.5-2.5,3.5C439,77.4,430,87.2,426,89.6c-1.6,0.9-3.2,2.1-3.7,2.7c-0.4,0.5-2.3,1.4-4.2,2c-1.9,0.6-4.6,1.9-6.2,3.1
	c-1.5,1.1-3.3,2.1-4,2.1c-0.6,0-1.5,0.4-1.9,0.9c-0.4,0.5-2.6,1.3-5,1.8c-2.3,0.4-5.1,1.5-6.3,2.4c-1.1,0.9-2.9,1.8-4,2
	c-1,0.3-2,0.8-2.3,1.1c-0.2,0.3-1,0.6-1.7,0.6c-0.7,0-1.9,0.3-2.5,0.7c-1.3,0.7-9.6,3.4-10.5,3.4c-0.3,0-2.4,1.2-4.6,2.7
	c-2.3,1.5-5.2,2.8-6.7,3.1c-2.7,0.5-5.6,2.7-5.6,4.3c0,1.3-6.2,9.1-9.4,11.6c-4.4,3.6-6.9,5.8-8.4,7.3c-0.8,0.8-2.3,1.9-3.4,2.3
	c-1.1,0.5-1.9,1.2-1.9,1.8c0,0.5-0.5,0.9-1,0.9c-1.4,0-2.7,2.6-1.9,3.6c0.4,0.4,0.5,1.4,0.3,2.2c-0.2,0.7-0.3,3.5-0.3,6.1
	c0,2.6-0.2,4.9-0.4,5.1c-0.3,0.2-1,1.4-1.5,2.7c-1.3,2.8-9.3,12.9-10.2,12.9c-0.3,0-1.7,1-3,2.1c-1.7,1.5-2.4,2.7-2.4,4
	c0,1.3-0.8,2.7-2.2,4.1c-1.2,1.2-2.5,2.7-2.9,3.4c-0.4,0.6-1.1,1.8-1.5,2.6c-0.7,1.2-0.7,1.6,0.2,2.5c0.8,0.8,0.9,1.6,0.6,2.9
	c-0.7,2.5-0.8,8.4-0.1,8.8c0.8,0.5,0.6,11.6-0.1,12.1c-0.4,0.2-0.7,0.9-0.7,1.5c0,0.6-0.6,1.8-1.4,2.8l-1.4,1.7l2.7,2.6
	c1.5,1.5,2.7,3.1,2.7,3.6c0,0.5,0.2,1.1,0.5,1.2c1.1,0.5,4.9,8.1,4.9,9.9c0,2.7-1.8,9-2.9,10.3c-1.1,1.3-3.2,5.7-3,6.4
	c0.2,0.8-5.2,5.9-5.8,5.6c-0.3-0.2-0.5-0.1-0.4,0.3c0.1,0.4-1,1.9-2.4,3.5c-1.5,1.5-3.3,4.1-4.2,5.7c-0.8,1.6-1.8,2.8-2.3,2.7
	c-0.5-0.1-0.7,0.1-0.5,0.4c0.5,0.9-3.1,5.7-5.8,7.6c-1.2,0.9-4,3.4-6,5.5c-4.4,4.5-6.9,6.3-14.9,10.5c-3.2,1.7-7,3.7-8.2,4.4
	c-1.3,0.7-2.7,1.3-3.2,1.3c-1.7,0-6.8,4.1-10,7.9c-5.7,7.1-7.9,8.5-15.8,10.8c-3.9,1.1-14.8,5.4-19,7.5c-2.2,1.1-3.4,1.2-2.8,0.3
	c0.2-0.4,0.1-0.7-0.3-0.7c-0.4,0-0.9,0.4-1.2,0.8c-0.3,0.5-2.1,0.6-5.4,0.3c-3.4-0.3-5.4-0.2-6.5,0.4c-0.8,0.4-4.3,1-7.8,1.3
	c-6.1,0.5-6.3,0.5-9.1,3.2c-1.5,1.5-3.7,4.1-4.7,5.8c-1.1,1.7-2.4,3.4-3.1,3.9c-0.6,0.4-1.8,2.7-2.7,5.1c-1.7,4.6-2.5,6.6-4.3,9.7
	c-1.9,3.5-4.1,8.1-4.3,9c-0.1,0.4-0.8,1.7-1.5,2.7c-0.7,1-1.8,3.4-2.4,5.3c-0.6,1.9-2,4.7-3,6.3c-2.4,3.5-9.3,9.7-10.9,9.7
	c-0.6,0-2.2,0.8-3.5,1.7c-1.3,0.9-4.4,2.3-6.9,3.1c-2.5,0.8-4.9,1.9-5.4,2.4c-0.5,0.6-1.8,1.5-3,2.1c-1.1,0.6-3.9,2.9-6.1,5.1
	c-3.6,3.7-4,4.3-3.6,6.4c0.4,2.7-0.7,6.3-3.4,10.9c-1,1.8-2,3.6-2,4.1c-0.1,0.5-0.7,1.7-1.3,2.7c-0.7,1-1.3,2.3-1.4,2.8
	c-0.1,0.5-0.5,1.6-0.8,2.4c-0.4,0.8-1.3,3.2-2.1,5.5c-3.4,9.5-3.9,11.6-3.3,13.7c0.7,2.6,0.2,7.4-1.1,10c-0.6,1.1-1,2.7-1,3.4
	c0,3.6-4.6,8.5-14.3,15.3c-1.7,1.2-3.8,3-4.7,3.9c-0.9,1-4.3,4-7.7,6.6c-3.3,2.6-6,5-6,5.3c0,0.3-1.3,1-2.9,1.7
	c-3.7,1.4-8.6,6.4-11,11.1c-1.9,3.9-2,4.3-1.2,4.3c1.3,0,5.8-5.2,7.2-8.4c1.2-2.8,1.8-3.4,3.3-3.5c1.8-0.1,2.5,1.2,1.1,2
	c-0.4,0.2-0.5,0.8-0.3,1.3c0.2,0.5-1.1,2.6-3.1,4.7c-1.9,2.1-3.9,4.6-4.6,5.7c-0.7,1.1-1.6,2.1-2.1,2.4c-1,0.6-6.3,10.9-6.3,12.2
	c0,0.5-1.1,2-2.4,3.2c-1.8,1.7-2.2,2.5-1.6,3.2c0.4,0.5,1.1,0.8,1.5,0.7c0.9-0.2,0.6,3.5-0.4,4.8c-0.4,0.5-1.8,1.3-3.1,1.9
	c-1.3,0.6-2.2,1.3-2,1.8c0.2,0.5-0.1,1.4-0.7,2c-0.6,0.6-1.1,2.9-1.2,5c-0.2,3-0.6,4.3-2.3,6.3c-1.1,1.4-2.1,3.3-2.1,4.3
	c0,4.4-3.5,7.7-7.1,6.7c-1.6-0.4-2.3-0.3-3.4,0.8c-0.8,0.7-1.8,1.3-2.2,1.3c-0.4,0-0.8,0.8-0.8,1.7c0,0.9-0.4,1.8-1,2
	c-0.8,0.3-1.5,2-2.9,7.3c-0.1,0.6-0.3,1.5-0.4,2.2c-0.1,0.6-0.7,1.7-1.3,2.4c-2,2.2-2.6,4-1.7,4.9c0.6,0.6,0.6,0.8,0,0.8
	c-0.6,0-0.8,1.8-0.8,6c0,3.3-0.2,6.2-0.4,6.5c-0.2,0.2-0.6,1.7-0.7,3.3c-0.1,1.5-0.4,3.2-0.7,3.6c-0.3,0.4-0.6,4.1-0.7,8.2
	c-0.1,4.7-0.6,8-1.1,8.9c-0.8,1.2-0.8,1.6,0.2,2.6c1.1,1.1,1.2,1.1,2-0.1c0.5-0.6,0.7-1.6,0.5-2.1c-0.2-0.5-0.1-1.3,0.3-1.7
	c0.3-0.4,0.8-2,0.9-3.5c0.5-3.9,3.5-12.1,5-13.3c0.5-0.4,14.4-0.8,39-1c21-0.1,39.5-0.5,41.1-0.6c1.6-0.2,20.3-0.5,41.4-0.7
	c21.1-0.2,38.5-0.3,38.6-0.4c0.1,0,0.2-11.6,0.2-25.8v-25.8l2-9c1.1-5,2.1-9.1,2.2-9.2c4.2-3.1,19.6-12.8,20.6-13
	c6.7-1,9.8-1.6,11.4-2.2c1-0.4,2.1-0.7,2.4-0.6c0.3,0,1.5-0.3,2.6-0.7l2.1-0.8l0.4-43.1c0.3-23.7,0.6-48,0.9-54.1l0.4-11.1h69.6
	h69.6l0.4-16.8c0.2-9.3,0.8-34.3,1.2-55.6c0.8-37.9,0.9-38.7,2.2-39.4c0.8-0.4,2.1-1.3,2.9-2.1c0.9-0.8,1.5-1.2,1.5-0.9
	c0,0.7,2-0.5,7.9-4.8c2.9-2.1,5.8-4,6.4-4.2c0.6-0.2,2.2-1.2,3.7-2.1c1.5-1,3.3-2.1,4.1-2.6c3.8-2.4,25-12.6,28-13.5
	c3.7-1.1,13.9-1,19.6,0.1c4.9,0.9,10.8,0.6,15.6-0.8c2.6-0.8,5.6-1.6,6.6-1.8c1-0.2,2.2-0.5,2.7-0.8c0.4-0.3,4.9-0.5,9.9-0.4
	c9,0.1,9.1,0.1,10.8-1.7c1.4-1.5,1.7-1.6,2.1-0.7c0.3,0.6,1.5,1.5,2.7,1.9c1.5,0.5,2.2,1.1,1.9,1.7c-0.2,0.6,0.3,1.1,1.5,1.4
	c1,0.3,1.9,0.3,2,0.2c0.1-0.1,1.5-2.8,3.1-5.9c2.6-5.2,8.7-13,13.8-17.9c2.4-2.3,12.9-8.9,16.4-10.3c1.4-0.6,4.7-3,7.3-5.5
	c3.9-3.6,6.5-5.3,14-9c9.5-4.6,10.2-4.9,14.9-5.5c1.5-0.2,3.5-0.8,4.5-1.3c1-0.5,2-0.7,2.2-0.5c0.2,0.2,0.4-0.7,0.4-2.1
	c0-1.6,0.6-3.5,1.7-5c0.9-1.4,1.7-3.1,1.7-3.7c0-0.7,0.4-1.2,0.9-1.2c0.5,0,0.9-0.4,0.9-1c0-0.8-0.2-0.8-0.9-0.3
	c-0.7,0.6-0.9,0.4-0.9-1c0-1.5-0.3-1.8-2-1.8c-1.1,0-2.1-0.4-2.3-0.8c-0.1-0.4-0.7-0.9-1.3-0.9c-0.5,0-1.7-0.1-2.6-0.2
	c-1.3-0.1-1.5-0.3-0.8-0.9c0.4-0.4,0.8-1.3,0.8-2c0-0.6,0.5-1.3,1.1-1.6c1.5-0.6,0.6-1.7-1.1-1.3c-2.2,0.6-1.5-0.4,1.4-1.8
	c2.5-1.3,2.6-1.5,2-3.1c-0.8-2.2-0.8-2.5,0-2c0.4,0.2,0.5,0,0.3-0.6c-0.9-2.4,3.3-6.1,7.7-6.8c1.2-0.2,2.5-0.5,2.8-0.7
	c0.3-0.2,1.8-0.5,3.1-0.6c1.4-0.1,2.7-0.4,2.9-0.7c0.2-0.3,1.7-0.6,3.4-0.6c2.7,0,5.7-0.9,12.1-3.7c1-0.5,3.1-0.7,4.5-0.5
	c1.9,0.2,2.6,0,2.6-0.7c0-0.6-0.5-0.9-1.4-0.7c-0.8,0.1-1,0.1-0.6-0.1c0.5-0.2,1.2-1,1.6-1.8c0.6-1,0.6-1.3,0-0.9
	c-0.4,0.3-0.7,0.1-0.7-0.4c0-0.5-0.7-1.2-1.5-1.6c-1.1-0.4-1.5-1.1-1.3-2.2c0.1-1-0.3-1.6-1-1.8c-1.2-0.3,2.9-0.8,5.6-0.7
	c0.8,0.1,2.1-0.2,3.1-0.6c0.9-0.4,3.2-0.8,5.1-0.9c1.9-0.1,3.9-0.4,4.4-0.6c1.8-0.7,21-1,24-0.3c1.6,0.4,6,0.8,9.9,0.9
	c4.6,0.2,7.4,0.5,8.1,1.2c0.6,0.5,1.2,0.8,1.2,0.6c0-0.2,1.4,0.1,3,0.6c2.8,0.9,2.9,0.9,4.8-0.9l1.9-1.8l-0.9-4.2
	c-0.8-4.1-0.8-4.3,0.8-6.5c1-1.2,2.6-2.7,3.7-3.2c2-1,2.4-2,1.5-3.4c-0.6-0.8-6.6-4.6-8.5-5.3c-0.6-0.2-1.2-1.1-1.2-1.8
	c0-0.8-0.5-1.4-1-1.4c-0.5,0-1-0.5-1-1c0-0.6-0.5-1-1-1s-1-0.4-1-1c0-0.6-0.5-1-1-1c-0.6,0-1-0.5-1-1c0-0.6-0.4-1-0.9-1
	c-0.6,0-1.1-1-1.3-2.5c-0.2-1.4-0.6-3.4-0.8-4.5c-0.4-1.4-0.3-1.8,0.3-1.5c0.5,0.3,0.8-0.1,0.8-1.3c0-2-1.9-3.1-2.7-1.7
	c-0.4,0.7-0.7,0.5-1-0.8c-0.3-0.9-1.1-2-1.9-2.4c-1.1-0.5-1.5-1.4-1.7-3.3c-0.1-1.4,0-3.1,0.3-3.8c0.3-0.6,0.6-1.9,0.8-2.8
	c0.1-0.9,0.8-2.1,1.4-2.6c0.9-0.7,0.9-0.8,0.1-0.9c-0.7-0.1-0.7-0.2-0.1-0.4c0.5-0.2,0.8-1.2,0.8-2.3c0-1.8-0.2-2-2.4-2
	c-2.6,0-3.6-1.2-2.7-3.3c0.7-1.7,0.8-2,0.9-7.8c0.1-4.2,0.3-5.3,1.1-5.3c0.7,0,1-0.7,1-2.1c0-1.1-0.3-1.9-0.6-1.7
	c-0.9,0.6-1.5-1.9-2-8.2c-0.4-4.5-0.8-5.9-2-7.2c-0.8-0.9-1.5-2-1.5-2.4s-0.3-0.8-0.7-0.8c-1.3,0-0.6-3.7,1.1-5.5
	c1.1-1.2,1.5-2,1-2.3c-0.4-0.3-0.8,0-0.8,0.6c0,0.6-0.3,0.9-0.7,0.7c-0.4-0.3-0.6-0.6-0.4-0.9c0.1-0.3-0.8-1.2-2-2.1
	c-1.3-0.9-2.2-1.9-2-2.2c0.2-0.3-0.1-0.4-0.6-0.2c-1.2,0.4-6.4-2.9-6.1-3.9c0.1-0.4,0-0.5-0.3-0.4c-0.9,0.5-3.7-0.8-3.3-1.5
	c0.2-0.3-0.3-0.5-1-0.3c-1.1,0.3-1.6-0.1-2.2-1.7c-0.9-2.3-2.5-3.2-7.6-4.2c-2.5-0.5-3.6-0.4-4.1,0.2c-0.9,1.1-6.5,3.1-7.6,2.7
	c-0.5-0.2-0.6-0.6-0.4-1c0.3-0.4,0.1-0.5-0.3-0.3c-1.1,0.7-3.8-0.6-6.1-3c-1.2-1.2-2.4-2-2.8-1.8c-1.1,0.7-3.5-4.9-2.9-6.6
	c0.7-1.9-0.4-3.1-2.4-2.7c-1.7,0.3-3.2,2.5-2.7,3.9c0.4,1-1.5,3.1-2.7,3.1c-0.4,0-1.1,0.5-1.6,1c-0.4,0.6-1.5,1-2.4,1
	c-0.9,0-1.8,0.3-2,0.7c-0.3,0.5-0.8,0.5-1.4-0.1c-0.5-0.4-0.8-1-0.6-1.3c0.1-0.3-1.7-0.6-4.2-0.6c-3-0.1-4.3,0.1-4,0.6
	c0.2,0.4,0.1,0.7-0.3,0.7c-0.4,0-0.7-0.3-0.7-0.7c0-0.4-0.4-0.5-1-0.3c-0.6,0.2-1.8-0.1-2.8-0.8c-1.8-1.2-1.8-1.2-3.7,1
	c-1.5,1.7-2.2,2.1-3.5,1.7c-0.8-0.3-1.7-0.8-1.9-1c-0.6-0.9-7.3-1-8.3-0.1c-1.2,1-14.8,2.9-14.8,2c0-0.4-0.7-0.5-1.5-0.3
	c-0.8,0.2-1.9,0.1-2.3-0.3c-0.4-0.4-2.1-0.8-3.6-1c-3-0.3-8.9-2.8-8.9-3.8c0-0.3-1-1.2-2.2-2c-4.9-3.1-6.1-4-8.8-6.6
	c-1.5-1.5-3.5-2.8-4.2-3c-0.8-0.2-1.7-1.3-2.1-2.6c-0.4-1.2-1.4-2.6-2.2-3.2c-1-0.7-1.5-1.7-1.5-3.4c0-1.9,0.3-2.4,1.7-2.7
	c1.8-0.4,2.2-1.3,0.9-2C499.9,5.9,497.4,5.7,495,5.7z M647.6,62.9c-0.2,0-0.3,0.3-0.3,0.7c0,1.1,0.2,1.3,0.8,0.4
	c0.2-0.4,0.1-0.8-0.2-1C647.8,62.9,647.7,62.9,647.6,62.9z M659.8,126c-0.3,0-0.6,0.1-0.9,0.2c-0.6,0.3-0.9,0.8-0.6,1.1
	c0.5,0.9,1.5,0.9,2-0.1C660.8,126.4,660.5,126,659.8,126z M602.8,170.8c-0.4,0-0.7,0.3-0.7,0.7c0,0.4,0.3,0.5,0.7,0.3
	c0.4-0.2,0.7-0.5,0.7-0.7C603.5,171,603.1,170.8,602.8,170.8z M585.1,183.8c-1.1,0-2.1,0.3-2.1,0.7c0,0.4-0.9,0.7-2,0.7
	c-1.4,0-2,0.3-2,1c0,0.7,0.7,1,2,1c1.1,0,2.1-0.4,2.4-1c0.2-0.6,1-1,1.7-1c0.7,0,1.5-0.3,1.8-0.7C587,184.1,586.3,183.8,585.1,183.8
	z M301.5,267c-0.1,0.1-0.2,0.4-0.2,1c0,0.8,0.2,1,0.4,0.4c0.2-0.5,0.2-1.1-0.1-1.3C301.6,267,301.5,267,301.5,267z"/>
<g id="Layer_2_1_" class="st0">
	<path class="st4" d="M454.3,168.1L454.3,168.1H497l-31.4,24.3l-2-6.2l15.5-12.1h-43.4l2.3-6.1h9.9l0,0H454.3 M454.3,165.7h-9.5l0,0
		h-8.5l-0.6,1.6l-2.3,6.1l-1.2,3.3h39.8l-9.9,7.7l-1.4,1.1l0.5,1.7l2,6.2l1.1,3.3l2.7-2.1l31.3-24.4l5.6-4.4h-47.8L454.3,165.7z"/>
	<path class="st4" d="M457.4,177.4l4.1,12.4l1.6,4.7l0,0l13.5,40.7l-31.3-23.1l5.1-3.8l14.3,10.6l-7.9-23.8l-0.9-2.8l0,0l-5-15
		L457.4,177.4 M459.1,174.9h-1.8h-6.5h-3.4l1.1,3.2l4.8,14.6l0,0l0.1,0.4l0.9,2.8l5.4,16.4l-8.1-6l-1.5-1.1l-1.5,1.1l-5.1,3.8
		l-2.6,2l2.6,1.9l31.3,23.1l6.2,4.6l-2.4-7.3L466,195.7l0,0l-0.7-2l-1.6-4.7l-4.1-12.4L459.1,174.9z"/>
	<path class="st4" d="M441.4,129.2l11.9,35.8h-6.4l-5.5-16.7l-13.4,39.3l-5.1-3.9L441.4,129.2 M441.5,121.5l-2.3,6.9L420.5,183
		l-0.6,1.7l1.4,1.1l5.1,3.9l2.7,2l1.1-3.2l11.1-32.5l3.2,9.8l0.6,1.7h11.6l-1.1-3.2l-11.8-35.8L441.5,121.5z"/>
	<path class="st4" d="M453.5,195l1.8,5.6l-50.1,34.7l13.4-39.2l5.1,3.9l-6.9,20.3L453.5,195 M454.8,191.1l-2.7,1.8l-30.7,21
		l4.5-13.3l0.6-1.7l-1.4-1.1l-5.1-3.9l-2.7-2l-1,3.1l-13.4,39.2l-2.4,7l6.1-4.2l50.1-34.7l1.5-1l-0.6-1.7l-1.8-5.6L454.8,191.1z"/>
	<path class="st4" d="M424.7,168.1l-2,6.1h-17.9l17,12.7l0.6,0.4l17.7,13.2l-5.4,3.7l-48.2-36.1L424.7,168.1 M428.1,165.7h-49
		l5.9,4.4l48.2,36.1l1.4,1l1.4-1l5.4-3.7l2.8-1.9l-2.7-2l-17.7-13.2l-0.6-0.4l-11.1-8.3h12.4l0.6-1.7l2-6.1L428.1,165.7z"/>
</g>
<g id="Layer_3">
	<path class="st5" d="M270.3,237.5L259.7,227c-1.7-1.7-4.5-1.7-6.1,0c-1.7,1.7-1.7,4.5,0,6.1l10.6,10.5c1.8,1.6,4.5,1.5,6.1-0.3
		C271.8,241.7,271.8,239.1,270.3,237.5z"/>
	<path class="st5" d="M242.7,216.2L242.7,216.2c-1.7,1.7-1.7,4.4,0,6.1c1.7,1.7,4.4,1.7,6.1,0c1.7-1.7,1.7-4.4,0-6.1
		C247.2,214.5,244.5,214.5,242.7,216.2C242.7,216.2,242.7,216.2,242.7,216.2L242.7,216.2z"/>
	<path class="st5" d="M188.3,263.8c-0.9-0.9-2.2-1.4-3.4-1.3l-1.4,0.1c-6.3,0.5-12.6-0.9-18.1-3.9l2.8-2.8c16.5-1,32-8,43.7-19.7
		l42.1-42.1c6.4-6.4,6.4-16.7,0-23.1c-2.2-2.2-4.9-3.7-7.9-4.4c3.8-8.2,0.2-17.9-8-21.7c-1.3-0.6-2.7-1-4.1-1.3
		c2.8-8.6-1.8-17.8-10.3-20.6c-0.8-0.3-1.6-0.5-2.4-0.6c2.8-8.6-1.9-17.8-10.4-20.6c-4.3-1.4-8.9-1-12.9,1.1l-0.4-0.4
		c-5.5-5.9-13.1-9.2-21.1-9.2h-34.1c-2.4,0-4.3,1.9-4.3,4.3c0,0,0,0,0,0v5.7c0,2.2,0.4,4.5,1.1,6.6c-8.3-3.5-17.9,0.5-21.4,8.8
		c-1.5,3.6-1.7,7.7-0.4,11.4c-8.9,1.5-14.9,10-13.3,18.9c0.1,0.8,0.3,1.6,0.6,2.3c-8.9,1.6-14.8,10.1-13.3,19c0.2,1.4,0.7,2.8,1.3,4
		c-3,0.7-5.7,2.2-7.9,4.4c-6.4,6.4-6.4,16.7,0,23.1l8.7,8.7l-42.7,42.6c-1.7,1.7-1.7,4.4,0,6.1c0,0,0,0,0,0c1.7,1.7,4.4,1.7,6.1,0
		c0,0,0,0,0,0l43.1-43c7.8,4.5,17.8,1.7,22.3-6.1c1.5-2.7,2.2-5.7,2.1-8.8h0.7c9,0,16.3-7.3,16.4-16.3c0,0,0,0,0,0
		c0-0.2,0-0.4,0-0.7h0.7c9,0,16.3-7.3,16.4-16.3c0,0,0,0,0,0c0-0.2,0-0.4,0-0.7h0.6c9,0,16.4-7.3,16.4-16.3c0-3.8-1.3-7.5-3.7-10.4
		l28.8-28.8c3.1-2.9,8-2.7,10.9,0.4c2.8,3,2.8,7.5,0,10.5l-4.2,4.2l-15.4,15.4c-1.7,1.7-1.7,4.4,0,6.1s4.4,1.7,6.1,0l15.4-15.4
		c3.1-2.9,8-2.7,10.9,0.4c2.8,3,2.8,7.5,0,10.5l-4.3,4.3l-11.2,11.2c-1.7,1.7-1.7,4.4,0,6.1s4.4,1.7,6.1,0l11.2-11.2
		c2.9-3.1,7.8-3.3,10.9-0.4c3.1,2.9,3.3,7.8,0.4,10.9c-0.1,0.1-0.2,0.2-0.4,0.4l-5.8,5.8l-5.3,5.3c-1.7,1.7-1.7,4.4,0,6.1
		s4.4,1.7,6.1,0l0,0l5.3-5.3c2.9-3.1,7.8-3.3,10.9-0.4c3.1,2.9,3.3,7.8,0.4,10.9c-0.1,0.1-0.2,0.2-0.4,0.4l-42.1,42.1
		c-10.5,10.6-24.7,16.7-39.6,17.2c-1.1,0-2.1,0.5-2.9,1.3l-38.9,39c-1.7,1.7-1.7,4.4,0,6.1c1.7,1.7,4.4,1.7,6.1,0l28.6-28.7
		c7.3,4.7,15.9,6.9,24.5,6.3l22.3,22.4c1.7,1.7,4.4,1.7,6.1,0c1.7-1.7,1.7-4.4,0-6.1l0,0L188.3,263.8z M146.6,101.9h29.8
		c5.6,0,11,2.3,14.8,6.4l0.2,0.2l-25.9,26l-11.9-12c1.4,0.3,2.8,0.4,4.1,0.4h0.1l11.9-0.1c2.4,0,4.3-1.9,4.3-4.3
		c0-2.4-1.9-4.3-4.3-4.3l0,0l-11.9,0.1l0,0c-6.1,0-11-4.9-11-11v-1.3L146.6,101.9z M113.3,207.4c-3,3-7.9,3-10.8,0c0,0,0,0,0,0
		l-11.7-11.7c-3.1-2.9-3.3-7.8-0.4-10.9s7.8-3.3,10.9-0.4c0.1,0.1,0.2,0.2,0.4,0.4l11.7,11.7C116.3,199.6,116.3,204.4,113.3,207.4z
		 M132.6,185c0,4.2-3.4,7.7-7.7,7.7c-2,0-4-0.8-5.4-2.2l-11.7-11.7l-5.8-5.8c-3-3-3.1-7.8-0.2-10.9c3-3,7.8-3.1,10.9-0.2
		c0.1,0.1,0.1,0.1,0.2,0.2l17.6,17.6l0,0C131.7,181,132.6,183,132.6,185L132.6,185z M149.6,168c0,4.2-3.4,7.7-7.7,7.7
		c-2,0-4-0.8-5.4-2.2l-21.8-21.8c-2.9-3.1-2.7-8,0.4-10.9c3-2.8,7.5-2.8,10.5,0l9.9,9.9l11.9,11.9l0,0
		C148.7,164,149.6,166,149.6,168L149.6,168z M164.3,156.5c-3,3-7.9,3-10.9,0l-21.8-21.8l0,0l-4.3-4.2c-3-3-3-7.9,0-10.9
		c3-3,7.9-3,10.9,0l26.1,26.1C167.3,148.5,167.3,153.4,164.3,156.5L164.3,156.5z"/>
</g>
<path class="st5" d="M513.8,164h-56.2l-17.4-53.4L422.9,164h-56.2l45.4,33l-17.4,53.4l45.4-33l45.4,33L468.4,197L513.8,164z
	 M424.9,192.9l5.9-18.1h19l5.9,18.1v0l-15.4,11.2L424.9,192.9L424.9,192.9z M446.2,164h-12l6-18.4L446.2,164z M464.8,186.2
	l-3.7-11.4h19.4L464.8,186.2z M419.4,174.8l-3.7,11.4L400,174.8H419.4z M415.4,222.1l6-18.4l9.7,7L415.4,222.1z M449.5,210.7l9.7-7
	l6,18.4L449.5,210.7z M449.5,210.7"/>
</svg>
